<?xml version="1.0" encoding="utf-8"?>
<!-- Generator: Adobe Illustrator 27.9.0, SVG Export Plug-In . SVG Version: 6.00 Build 0) -->
<svg version="1.1" id="Layer_1" xmlns="http://www.w3.org/2000/svg" xmlns:xlink="http://www.w3.org/1999/xlink" x="0px" y="0px" viewBox="0 0 64 64" style="enable-background:new 0 0 64 64;" xml:space="preserve">
	<style>
		.st0{fill:#12130F;}
		@media (prefers-color-scheme: dark) {
			.st0{fill:#F2EDEB;}
		}
	</style>
	<g>
		<g>
			<g>
				<path class="st0" d="M47.2,17.9c-7.4,0-13.4,5.6-14.1,12.8h14.1v0.6l0,0v1.5l0,0v0.6H33.1c0.7,7.3,6.8,13,14.3,12.8
				C54.9,46,61,40,61.3,32.6C61.6,24.5,55.2,17.9,47.2,17.9z" />
				<path class="st0" d="M30.9,33.3H16.8v-0.6l0,0v-1.5l0,0v-0.6h14.1c-0.7-7.3-6.9-12.9-14.3-12.8C9.1,18,3,24,2.7,31.5
				c-0.3,8.1,6.1,14.7,14.1,14.7C24.2,46.1,30.2,40.5,30.9,33.3z" />
			</g>
		</g>
	</g>
</svg>
