<?xml version="1.0" encoding="UTF-8" standalone="no"?>
<!-- Created with Inkscape (http://www.inkscape.org/) -->

<svg
   width="17mm"
   height="17mm"
   viewBox="0 0 17 17"
   version="1.1"
   id="svg1"
   inkscape:version="1.4.2 (f4327f4, 2025-05-13)"
   sodipodi:docname="Tusche-Dreieck-blau.svg"
   xmlns:inkscape="http://www.inkscape.org/namespaces/inkscape"
   xmlns:sodipodi="http://sodipodi.sourceforge.net/DTD/sodipodi-0.dtd"
   xmlns="http://www.w3.org/2000/svg"
   xmlns:svg="http://www.w3.org/2000/svg">
  <sodipodi:namedview
     id="namedview1"
     pagecolor="#ffffff"
     bordercolor="#000000"
     borderopacity="0.25"
     inkscape:showpageshadow="2"
     inkscape:pageopacity="0.0"
     inkscape:pagecheckerboard="0"
     inkscape:deskcolor="#d1d1d1"
     inkscape:document-units="mm"
     inkscape:zoom="1.0093364"
     inkscape:cx="397.29073"
     inkscape:cy="244.21986"
     inkscape:window-width="2560"
     inkscape:window-height="1351"
     inkscape:window-x="-9"
     inkscape:window-y="-9"
     inkscape:window-maximized="1"
     inkscape:current-layer="layer1" />
  <defs
     id="defs1" />
  <g
     inkscape:label="Ebene 1"
     inkscape:groupmode="layer"
     id="layer1">
    <g
       id="Gruppe_23671"
       data-name="Gruppe 23671"
       transform="matrix(0.05953125,0.25770416,-0.25770416,0.05953125,14.17104,-1.2264066)">
      <path
         id="Pfad_49421"
         data-name="Pfad 49421"
         d="m 0.242,41.224 c 0.522,0.211 -0.44,3.347 -0.2,4.121 a 0.182,0.182 0 0 0 0.252,0.1 C 16.128,38.487 36.446,33.754 54.53,29.192 43.951,19.32 37.534,9.633 27.248,0 22.677,10.444 16.1,19.207 9.239,27.729 6.3,31.033 3.115,37.069 0.4,41.748 c -0.117,0.2 -0.431,0.064 -0.335,-0.147 z"
         transform="translate(4.224,1.99)"
         fill="#b9ddf5" />
      <path
         id="Pfad_49424"
         data-name="Pfad 49424"
         d="m 59.95,29.066 c -0.083,4.213 -0.743,5.63 -4.123,6.1 C 48.221,36.334 40.8,38.7 33.4,40.259 A 102.645,102.645 0 0 0 7.96,48.421 15.19,15.19 0 0 1 4.139,49.907 c -3.172,0.669 -5.027,-1.5 -3.706,-4.331 A 53.3,53.3 0 0 1 3.5,39.7 L 23.691,9.2 C 25.21,6.962 26.522,4.529 28.04,2.291 29.986,-0.565 32.73,-0.823 35.2,1.93 a 21.041,21.041 0 0 0 3.718,3.73 c 8.109,5.64 13.852,13.54 20.03,20.824 0.62,0.587 0.8,2.186 1,2.583 z M 7.3,41.992 c 0.531,0.22 0.789,0.679 1.321,0.9 14.578,-6.573 31.918,-7.9 48.593,-12.2 C 47.495,21.391 41.6,12.269 32.146,3.2 27.94,13.03 21.89,21.276 15.577,29.3 12.292,33.081 10.064,37.535 7.299,42 Z"
         fill="#2e2e2d" />
    </g>
  </g>
</svg>
