<?xml version="1.0" encoding="UTF-8" standalone="no"?>
<!-- Generator: Adobe Illustrator 13.0.0, SVG Export Plug-In . SVG Version: 6.00 Build 14948)  -->

<svg
   version="1.1"
   id="Ebene_1"
   x="0px"
   y="0px"
   width="512"
   height="512"
   viewBox="0 0 512 512"
   enable-background="new 0 0 270.138 270.124"
   xml:space="preserve"
   sodipodi:version="0.32"
   inkscape:version="1.4 (e7c3feb100, 2024-10-09)"
   sodipodi:docname="b1-systems_favicon.svg"
   inkscape:output_extension="org.inkscape.output.svg.inkscape"
   inkscape:export-filename="../../../../../../Schreibtisch/b1-systems_300x183.png"
   inkscape:export-xdpi="96"
   inkscape:export-ydpi="96"
   xmlns:inkscape="http://www.inkscape.org/namespaces/inkscape"
   xmlns:sodipodi="http://sodipodi.sourceforge.net/DTD/sodipodi-0.dtd"
   xmlns="http://www.w3.org/2000/svg"
   xmlns:svg="http://www.w3.org/2000/svg"
   xmlns:rdf="http://www.w3.org/1999/02/22-rdf-syntax-ns#"
   xmlns:cc="http://creativecommons.org/ns#"
   xmlns:dc="http://purl.org/dc/elements/1.1/"><metadata
     id="metadata42"><rdf:RDF><cc:Work
         rdf:about=""><dc:format>image/svg+xml</dc:format><dc:type
           rdf:resource="http://purl.org/dc/dcmitype/StillImage" /></cc:Work></rdf:RDF></metadata><defs
     id="defs40" /><sodipodi:namedview
     inkscape:window-height="1038"
     inkscape:window-width="1918"
     inkscape:pageshadow="2"
     inkscape:pageopacity="0.0"
     guidetolerance="10.0"
     gridtolerance="10.0"
     objecttolerance="10.0"
     borderopacity="1.0"
     bordercolor="#666666"
     pagecolor="#ffffff"
     id="base"
     showgrid="false"
     inkscape:zoom="1.0000001"
     inkscape:cx="58.499997"
     inkscape:cy="309.49998"
     inkscape:window-x="0"
     inkscape:window-y="20"
     inkscape:current-layer="layer1"
     units="mm"
     inkscape:window-maximized="1"
     fit-margin-top="0"
     fit-margin-left="0"
     fit-margin-right="0"
     fit-margin-bottom="0"
     inkscape:showpageshadow="2"
     inkscape:pagecheckerboard="0"
     inkscape:deskcolor="#d1d1d1" /><g
     inkscape:groupmode="layer"
     id="layer1"
     inkscape:label="Layer 1"
     transform="translate(-60.496184,-2.0000007)"><g
       id="g351"
       transform="matrix(1.2024412,0,0,1.2024412,56.598055,44.121924)"><path
         style="fill:#224779"
         d="m 4.0703125,5.2070312 v 129.4843788 34.54297 51.8125 129.43554 c 86.3196995,0 164.0253875,0.0488 164.0253875,0.0488 43.15907,0 43.12891,-43.17773 43.12891,-43.17773 V 177.86914 c 0,0 0.0255,-37.22193 -34.5293,-42.54102 0.007,-0.18797 0.0371,-0.63671 0.0371,-0.63671 V 48.384766 c 0,0 -0.0186,-43.1777348 -43.17773,-43.1777348 z M 47.248047,48.384766 H 116.2832 c 17.27116,0 17.27149,17.271484 17.27149,17.271484 0.006,23.7351 0.006,28.022061 0,51.76367 0,0 -3.3e-4,17.27149 -17.27149,17.27149 -25.136369,-3e-5 -41.162522,-2e-5 -69.035153,0 z m 0,129.484374 h 94.941403 c 25.89419,0 25.90625,25.90625 25.90625,25.90625 v 77.67188 c 0,-2e-4 -0.0121,25.90625 -25.90625,25.90625 H 47.248047 Z"
         id="path5" /><path
         style="fill:#f7b234;stroke:#1a171b;stroke-width:2.28403;stroke-linejoin:round"
         d="m 340.74112,57.009429 -138.12063,34.5298 h 138.12063"
         id="polyline13"
         inkscape:connector-curvature="0" /><path
         style="fill:#1a171b;stroke:#1a171b;stroke-width:2.28403;stroke-linecap:round;stroke-linejoin:round"
         d="m 340.74112,57.009429 -138.12063,34.5298 138.11435,-86.3182"
         id="polyline15"
         inkscape:connector-curvature="0" /><path
         style="fill:#1a171b;stroke:#1a171b;stroke-width:2.28403;stroke-linecap:round;stroke-linejoin:round"
         id="path17"
         d="M 340.74112,350.51714 V 5.221029 h 34.53604 c 0,0 51.80093,0 51.79465,51.7884 0,34.5298 0,293.509311 0,293.509311 h -86.33069 v 0 z"
         inkscape:connector-curvature="0" /><path
         style="fill:#ffffff;stroke:#1a171b;stroke-width:1.52269"
         d="m 340.74112,91.539229 v 258.977911 0 h 86.33069 l -51.79465,-138.1222 v -77.6904 z"
         id="polygon19"
         inkscape:connector-curvature="0" /><path
         style="fill:#ffffff"
         id="path35"
         d="m 383.90018,39.750829 c 0,9.5305 -7.72178,17.2586 -17.2586,17.2586 -9.53682,0 -17.26488,-7.7281 -17.26488,-17.2586 0,-9.5368 7.72806,-17.2712 17.26488,-17.2712 9.53682,0 17.2586,7.7344 17.2586,17.2712 z"
         inkscape:connector-curvature="0" /><path
         style="fill:#1a171b"
         id="path37"
         d="m 375.27716,39.750829 c 0,4.759 -3.85775,8.6293 -8.63558,8.6293 -4.75899,0 -8.62302,-3.8703 -8.62302,-8.6293 0,-4.7716 3.86403,-8.6419 8.62302,-8.6419 4.77783,0 8.63558,3.8703 8.63558,8.6419 z"
         inkscape:connector-curvature="0" /></g></g></svg>
